<svg width="975" height="202" viewBox="0 0 975 202" fill="none" xmlns="http://www.w3.org/2000/svg">
<path d="M34.3482 116.916L49.7412 96.1368C50.7382 94.7918 52.8517 95.3511 53.0733 97.0157C57.7701 132.283 105.651 144.908 126.924 115.335L175.651 49.559C176.395 48.5557 177.986 49.0796 177.986 50.3313V88.8348C177.986 90.4327 177.472 91.9908 176.519 93.2736L149.233 130.042C120.68 171.138 56.9991 166.832 33.8607 123.103C32.815 121.124 33.0145 118.718 34.3482 116.916Z" fill="#F8F9FB"/>
<path d="M153.062 65.6394L137.58 86.5336C136.583 87.8786 134.474 87.3193 134.248 85.6591C129.511 50.5204 81.8876 37.8782 60.5393 67.2241L33.1472 104.138L12.3395 132.499C11.5996 133.511 10 132.983 10 131.731V92.9922C10 91.3941 10.514 89.8405 11.4622 88.5577L36.5236 54.7329C63.5789 11.2312 130.397 14.8978 153.567 59.4826C154.595 61.4579 154.387 63.8505 153.062 65.6394Z" fill="#F8F9FB"/>
<path d="M230.72 145.069V32.0713H251.846V127.151H308.612V145.069H230.72Z" fill="#F8F9FB"/>
<path d="M354.815 147.975C331.108 147.975 314.498 132.155 314.498 106.004C314.498 80.1761 331.27 63.7107 354.815 63.7107C378.521 63.7107 395.292 80.1761 395.292 106.004C395.292 132.155 378.521 147.975 354.815 147.975ZM354.815 132.478C367.071 132.478 375.295 122.792 375.295 106.004C375.295 88.8931 366.909 79.369 354.815 79.369C342.881 79.369 334.495 88.8931 334.495 106.004C334.495 122.792 342.558 132.478 354.815 132.478Z" fill="#F8F9FB"/>
<path d="M446.629 147.975C422.923 147.975 406.313 132.155 406.313 106.004C406.313 80.1761 423.084 63.7107 446.629 63.7107C470.335 63.7107 487.107 80.1761 487.107 106.004C487.107 132.155 470.335 147.975 446.629 147.975ZM446.629 132.478C458.886 132.478 467.11 122.792 467.11 106.004C467.11 88.8931 458.724 79.369 446.629 79.369C434.696 79.369 426.31 88.8931 426.31 106.004C426.31 122.792 434.373 132.478 446.629 132.478Z" fill="#F8F9FB"/>
<path d="M502.804 178V66.2935H522.479V69.8449C522.479 72.2662 522.317 74.3648 521.834 77.5933C526.833 69.1992 535.219 63.7107 547.636 63.7107C568.44 63.7107 582.147 81.1446 582.147 106.166C582.147 131.671 566.827 147.975 546.83 147.975C533.606 147.975 526.833 142.325 521.834 134.254C522.317 137.482 522.479 139.581 522.479 141.841V178H502.804ZM541.992 132.478C554.087 132.478 562.15 121.662 562.15 105.843C562.15 90.3459 554.571 79.369 541.992 79.369C530.219 79.369 521.672 89.5388 521.672 105.843C521.672 121.662 530.058 132.478 541.992 132.478Z" fill="#F8F9FB"/>
<path d="M629.054 147.975C606.8 147.975 593.092 136.352 591.802 117.95H611.799C612.283 127.312 618.088 133.285 628.571 133.285C637.44 133.285 643.084 129.088 643.084 123.115C643.084 117.788 638.569 115.367 630.183 113.753L620.668 111.816C604.219 108.587 594.866 100.839 594.866 87.7631C594.866 74.0419 607.767 63.7107 627.119 63.7107C648.245 63.7107 661.469 74.6876 661.953 91.153H642.278C641.633 83.4046 635.989 78.4004 627.119 78.4004C619.862 78.4004 614.218 81.3061 614.218 86.956C614.218 91.6373 617.282 94.0587 627.28 95.9958L636.795 97.9329C652.277 101 662.436 108.103 662.436 121.985C662.436 136.998 649.374 147.975 629.054 147.975Z" fill="#F8F9FB"/>
<path d="M713.4 147.975C688.404 147.975 673.568 131.832 673.568 105.681C673.568 79.369 691.468 63.7107 714.368 63.7107C737.268 63.7107 749.685 77.5933 751.621 95.9958H731.624C730.979 87.1174 725.495 79.369 714.368 79.369C702.918 79.369 693.565 88.7317 693.565 105.843C693.565 121.501 701.789 132.478 713.884 132.478C725.818 132.478 731.462 124.407 732.43 115.044H752.427C749.685 135.061 736.784 147.975 713.4 147.975Z" fill="#F8F9FB"/>
<path d="M789.809 147.975C776.102 147.975 762.716 138.935 762.716 123.438C762.716 105.681 776.424 99.5472 793.357 97.2872L804.646 95.8344C811.096 95.0273 813.354 92.6059 813.354 88.7317C813.354 83.2432 808.839 78.4004 800.453 78.4004C791.261 78.4004 785.455 83.566 784.649 91.7987H764.329C765.619 75.3333 779.004 63.7107 799.324 63.7107C823.353 63.7107 833.029 76.6247 833.029 98.74V145.069H814.806V141.841C814.806 139.258 815.128 136.836 815.612 134.254C811.419 142.002 803.356 147.975 789.809 147.975ZM795.131 133.447C805.613 133.447 813.999 125.698 813.999 114.56V106.004C812.225 107.618 809.484 108.426 804.646 109.394L798.195 110.686C789.003 112.461 782.714 115.528 782.714 122.631C782.714 129.572 788.197 133.447 795.131 133.447Z" fill="#F8F9FB"/>
<path d="M852.267 145.069V32.0713H871.942V145.069H852.267Z" fill="#F8F9FB"/>
<path d="M927.748 147.975C904.203 147.975 887.592 132.801 887.592 105.52C887.592 80.6604 904.203 63.7107 927.102 63.7107C951.131 63.7107 965 80.4989 965 106.166V110.524H907.75C907.912 122.954 915.814 132.478 927.748 132.478C936.295 132.478 943.229 127.635 944.519 119.403H964.516C962.904 135.545 949.035 147.975 927.748 147.975ZM944.842 96.3187C944.519 85.6646 937.585 78.4004 926.941 78.4004C916.298 78.4004 908.718 85.9874 907.589 96.3187H944.842Z" fill="#F8F9FB"/>
</svg>
